<?xml version="1.0" encoding="UTF-8"?><svg id="Layer_1" xmlns="http://www.w3.org/2000/svg" viewBox="0 0 2890.01 500"><defs><style>.cls-1{fill:#fff;}</style></defs><path class="cls-1" d="M300,100H100V0H0V250H100v-50h200v100c0,55.23-44.77,100-100,100s-100-44.77-100-100H0c0,110.46,89.54,200,200,200s200-89.54,200-200V0h-100V100Z"/><polygon class="cls-1" points="687.34 187.81 597.81 187.81 597.81 100 550 100 550 330.31 597.81 330.31 597.81 227.5 687.34 227.5 687.34 330.31 735.15 330.31 735.15 100 687.34 100 687.34 187.81"/><path class="cls-1" d="M919.84,318.59c-1.46-2.08-2.34-6.04-2.66-11.88-.21-7.71-.31-14.27-.31-19.69v-78.12c0-20.52-7.27-34.48-21.81-41.88-14.54-7.39-31.18-11.09-49.9-11.09-28.77,0-49.07,7.5-60.89,22.5-7.43,9.59-11.61,21.82-12.55,36.72h42.97c1.06-6.56,3.17-11.77,6.33-15.62,4.43-5.21,11.99-7.81,22.65-7.81,9.5,0,16.71,1.33,21.62,3.99,4.91,2.66,7.37,7.47,7.37,14.45,0,5.73-3.2,9.95-9.6,12.66-3.57,1.56-9.5,2.87-17.79,3.91l-15.27,1.87c-17.31,2.19-30.43,5.83-39.35,10.94-16.26,9.37-24.4,24.53-24.4,45.47,0,16.15,5.05,28.62,15.17,37.42,10.11,8.8,22.92,13.2,38.43,13.2,12.15,0,23.05-2.76,32.69-8.28,8.07-4.69,15.19-10.36,21.37-17.03,.31,3.85,.73,7.29,1.25,10.31,.52,3.02,1.46,6.25,2.81,9.69h48.44v-6.56c-2.92-1.35-5.11-3.07-6.56-5.16Zm-47.35-54.53c-.32,14.9-4.57,25.16-12.77,30.78-8.2,5.63-17.16,8.44-26.89,8.44-6.13,0-11.34-1.69-15.63-5.08-4.28-3.38-6.43-8.88-6.43-16.48,0-8.54,3.51-14.84,10.52-18.91,4.14-2.4,10.97-4.43,20.47-6.09l10.14-1.88c5.07-.94,9.05-1.95,11.96-3.05,2.9-1.09,5.78-2.53,8.63-4.3v16.56Z"/><path class="cls-1" d="M1188.12,175.94c-5.94-7.29-12.55-12.39-19.84-15.31-7.29-2.92-14.69-4.38-22.19-4.38-11.25,0-21.46,2.34-30.63,7.03-8.65,4.69-15.88,12.03-21.72,22.03-3.33-8.33-8.23-15.16-14.69-20.47-8.02-5.73-18.54-8.59-31.56-8.59-13.75,0-24.95,3.34-33.59,10-4.9,3.75-10.11,10.06-15.62,18.91v-24.84h-43.28v170h45.16v-102.5c0-9.27,1.2-16.25,3.59-20.94,4.37-8.23,12.91-12.34,25.62-12.34,10.94,0,18.28,4.12,22.03,12.34,2.08,4.58,3.12,11.93,3.12,22.03v101.41h44.84v-101.41c0-7.6,1.2-14.11,3.59-19.53,4.69-10.21,13.18-15.31,25.47-15.31,10.63,0,17.92,3.96,21.88,11.88,2.08,4.17,3.13,9.48,3.13,15.94v108.44h45.62l.31-107.34c0-11.04-.52-19.43-1.56-25.16-1.67-8.64-4.9-15.94-9.69-21.88Z"/><path class="cls-1" d="M1332.81,156.25c-12.47,0-22.75,2.61-30.82,7.81-6.82,4.17-13.06,10.21-18.71,18.12V100.31h-44.53v230h43.91v-21.41c5.97,8.33,11.52,14.17,16.65,17.5,8.58,5.63,19.94,8.44,34.08,8.44,22.51,0,40.05-8.7,52.61-26.09,12.56-17.4,18.85-39.32,18.85-65.78s-6.37-46.35-19.11-62.5c-12.74-16.14-30.38-24.22-52.92-24.22Zm15.7,127.97c-6.41,9.27-15.38,13.91-26.94,13.91-13.34,0-23.26-4.79-29.77-14.38-6.51-9.58-9.77-21.66-9.77-36.25,0-12.39,1.58-22.5,4.73-30.31,6.09-14.69,17.28-22.03,33.56-22.03s27.1,7.5,33.08,22.5c3.15,7.92,4.73,17.92,4.73,30,0,15.11-3.21,27.29-9.61,36.56Z"/><path class="cls-1" d="M1576.18,188.64c-7.74-11.47-17.55-19.87-29.43-25.19-11.88-5.32-25.23-7.98-40.05-7.98-24.96,0-45.26,7.87-60.9,23.62-15.64,15.74-23.46,38.37-23.46,67.87,0,31.49,8.66,54.22,25.99,68.19,17.33,13.97,37.32,20.95,59.99,20.95,27.46,0,48.82-8.28,64.07-24.84,9.81-10.42,15.31-20.68,16.51-30.78h-45.46c-2.65,5-5.71,8.91-9.16,11.72-6.34,5.21-14.58,7.81-24.73,7.81-9.57,0-17.75-2.13-24.55-6.41-11.18-6.87-17.12-18.85-17.81-35.94h124.04c.22-14.71-.27-25.98-1.47-33.8-2.07-13.35-6.59-25.09-13.57-35.21Zm-107.91,39.64c1.62-11.09,5.57-19.88,11.86-26.36,6.29-6.49,15.15-9.73,26.58-9.73,10.51,0,19.31,3.06,26.41,9.18,7.1,6.12,11.05,15.09,11.86,26.91h-76.72Z"/><path class="cls-1" d="M1706.24,155.94c-13.33,0-24.17,3.49-32.5,10.47-5.1,4.17-11.09,11.93-17.97,23.28v-29.69h-42.5v170.31h44.84v-81.41c0-13.64,1.72-23.75,5.16-30.31,6.14-11.66,18.17-17.5,36.09-17.5,1.35,0,3.13,.05,5.31,.16,2.19,.11,4.69,.31,7.5,.63v-45.63c-1.98-.1-3.26-.18-3.83-.23-.57-.05-1.28-.08-2.11-.08Z"/><path class="cls-1" d="M1848.74,184.53c-6.66-11.98-15.4-20.21-26.22-24.69-6.35-2.6-13.78-3.91-22.31-3.91-23.1,0-40.94,8.62-53.53,25.86-12.59,17.24-18.88,38.51-18.88,63.83s6.54,47.06,19.61,62.42c13.07,15.37,30.55,23.05,52.42,23.05,14.16,0,25.68-3.38,34.53-10.16,4.9-3.65,9.48-9.11,13.75-16.41v10.94c0,16.25-1.77,27.81-5.31,34.69-5.42,10.73-16.15,16.09-32.19,16.09-11.35,0-19.43-2.03-24.22-6.09-2.81-2.29-4.84-6.04-6.09-11.25h-48.44c1.46,16.98,9.06,29.74,22.81,38.28,13.75,8.54,31.51,12.81,53.28,12.81,36.04,0,60.42-9.59,73.12-28.75,7.39-11.15,11.09-27.71,11.09-49.69V160h-43.44v24.53Zm-11.05,97.42c-7.16,7.87-15.92,11.8-26.29,11.8-15.56,0-26.35-7.19-32.36-21.56-3.32-7.71-4.98-16.51-4.98-26.41,0-11.46,1.56-21.09,4.67-28.91,5.91-14.69,16.65-22.03,32.21-22.03,11.41,0,20.51,4.22,27.3,12.66,6.8,8.44,10.19,20.73,10.19,36.87,0,17.19-3.58,29.72-10.74,37.58Z"/><path class="cls-1" d="M2105.14,261.09c0,11.15-1.03,19.06-3.08,23.75-3.42,7.92-10.47,11.87-21.13,11.87s-17.79-3.62-21.06-10.86c-3.28-7.24-5.11-19.76-5.5-37.58v-5.31h-45.47v5.31c0,27.09,4.99,48.46,14.97,64.14,9.98,15.68,29.59,23.52,58.82,23.52s49.45-9.69,60.65-29.06c6.62-11.46,9.93-26.98,9.93-46.56V100h-48.12v161.09Z"/><path class="cls-1" d="M2341.02,188.64c-7.74-11.47-17.55-19.87-29.43-25.19-11.88-5.32-25.23-7.98-40.05-7.98-24.96,0-45.26,7.87-60.9,23.62-15.64,15.74-23.46,38.37-23.46,67.87,0,31.49,8.66,54.22,25.99,68.19,17.33,13.97,37.32,20.95,59.99,20.95,27.46,0,48.82-8.28,64.07-24.84,9.81-10.42,15.31-20.68,16.51-30.78h-45.46c-2.65,5-5.71,8.91-9.16,11.72-6.34,5.21-14.58,7.81-24.73,7.81-9.57,0-17.75-2.13-24.55-6.41-11.18-6.87-17.12-18.85-17.81-35.94h124.04c.22-14.71-.27-25.98-1.47-33.8-2.07-13.35-6.59-25.09-13.57-35.21Zm-107.91,39.64c1.62-11.09,5.57-19.88,11.86-26.36,6.29-6.49,15.15-9.73,26.58-9.73,10.51,0,19.31,3.06,26.41,9.18,7.1,6.12,11.05,15.09,11.86,26.91h-76.72Z"/><path class="cls-1" d="M2470.72,227.81c-26.61-5.83-42.11-9.95-46.49-12.34-4.39-2.29-6.58-5.99-6.58-11.09,0-4.06,2.06-7.6,6.19-10.63,4.13-3.02,11.05-4.53,20.76-4.53,11.8,0,20.16,3.02,25.07,9.06,2.61,3.34,4.23,7.87,4.86,13.59h44.53c-1.98-20.83-9.68-35.49-23.1-43.98-13.41-8.49-30.77-12.73-52.06-12.73-22.44,0-39.85,5.65-52.22,16.95-12.37,11.3-18.55,24.82-18.55,40.55,0,13.33,3.96,23.54,11.87,30.62,7.92,7.19,21.55,13.18,40.9,17.97,26.88,6.35,42.41,10.83,46.59,13.44,4.17,2.61,6.26,6.41,6.26,11.41s-2.59,9.12-7.77,11.72c-5.18,2.61-12.17,3.91-20.96,3.91-14.97,0-25.22-2.97-30.77-8.91-3.14-3.33-5.18-8.96-6.12-16.87h-45.16c0,17.5,6.39,31.9,19.18,43.2,12.79,11.3,32.59,16.95,59.42,16.95s45.74-5.34,58.32-16.02c12.58-10.68,18.87-24.45,18.87-41.33,0-12.81-4.38-23.49-13.12-32.03-8.85-8.44-22.15-14.74-39.89-18.91Z"/><path class="cls-1" d="M2648.68,227.81c-26.61-5.83-42.11-9.95-46.49-12.34-4.39-2.29-6.58-5.99-6.58-11.09,0-4.06,2.06-7.6,6.19-10.63,4.13-3.02,11.05-4.53,20.76-4.53,11.8,0,20.16,3.02,25.07,9.06,2.61,3.34,4.23,7.87,4.86,13.59h44.53c-1.98-20.83-9.68-35.49-23.1-43.98-13.41-8.49-30.77-12.73-52.06-12.73-22.44,0-39.85,5.65-52.22,16.95-12.37,11.3-18.55,24.82-18.55,40.55,0,13.33,3.96,23.54,11.87,30.62,7.92,7.19,21.55,13.18,40.9,17.97,26.88,6.35,42.41,10.83,46.59,13.44,4.17,2.61,6.26,6.41,6.26,11.41s-2.59,9.12-7.77,11.72c-5.18,2.61-12.17,3.91-20.96,3.91-14.97,0-25.22-2.97-30.77-8.91-3.14-3.33-5.18-8.96-6.12-16.87h-45.16c0,17.5,6.39,31.9,19.18,43.2,12.79,11.3,32.59,16.95,59.42,16.95s45.74-5.34,58.32-16.02c12.58-10.68,18.87-24.45,18.87-41.33,0-12.81-4.38-23.49-13.13-32.03-8.85-8.44-22.15-14.74-39.89-18.91Z"/><path class="cls-1" d="M2888.5,223.85c-2.07-13.35-6.59-25.09-13.57-35.21-7.74-11.47-17.55-19.87-29.43-25.19-11.88-5.32-25.23-7.98-40.05-7.98-24.96,0-45.26,7.87-60.9,23.62-15.64,15.74-23.46,38.37-23.46,67.87,0,31.49,8.66,54.22,25.99,68.19,17.33,13.97,37.32,20.95,59.99,20.95,27.46,0,48.82-8.28,64.07-24.84,9.81-10.42,15.31-20.68,16.51-30.78h-45.46c-2.65,5-5.71,8.91-9.16,11.72-6.34,5.21-14.58,7.81-24.73,7.81-9.57,0-17.75-2.13-24.55-6.41-11.18-6.87-17.12-18.85-17.81-35.94h124.04c.22-14.71-.27-25.98-1.47-33.8Zm-121.48,4.43c1.62-11.09,5.57-19.88,11.86-26.36,6.29-6.49,15.15-9.73,26.58-9.73,10.51,0,19.31,3.06,26.41,9.18,7.1,6.12,11.05,15.09,11.86,26.91h-76.72Z"/></svg>